<?xml version="1.0" standalone="no"?><svg xmlns:xlink="http://www.w3.org/1999/xlink" xmlns="http://www.w3.org/2000/svg" viewBox="0 0 1000 999.9999999999999" preserveAspectRatio="xMaxYMax slice"><g transform="scale(1.152073732718894)"><rect x="0" y="0" width="868" height="868" fill="#ffffff"/><path d="M 0 0 A 434 434 0 0 1  434 434 L 0 0 A 434 434 0 0 0 434 434" fill="#272727"/><rect x="434" y="0" width="434" height="434" fill="#ffffff"/><path d="M 434 217 A 217 217 0 0 1  651 0 L 434 217 A 217 217 0 0 0 651 0" fill="#272727"/><path d="M 651 217 A 217 217 0 0 1  868 0 L 651 217 A 217 217 0 0 0 868 0" fill="#272727"/><path d="M 434 434 A 217 217 0 0 1  651 217 L 434 434 A 217 217 0 0 0 651 217" fill="#272727"/><path d="M 651 434 A 217 217 0 0 1  868 217 L 651 434 A 217 217 0 0 0 868 217" fill="#14a76c"/><path d="M 0 868 A 434 434 0 0 1  434 434 L 0 868 A 434 434 0 0 0 434 434" fill="#14a76c"/><g transform="translate(434,434) scale(21.7) rotate(0)"><path fill-rule="evenodd" clip-rule="evenodd" d="M10 20C15.5228 20 20 15.5228 20 10C20 4.47715 15.5228 0 10 0C4.47715 0 0 4.47715 0 10C0 15.5228 4.47715 20 10 20ZM10 17C13.866 17 17 13.866 17 10C17 6.13401 13.866 3 10 3C6.13401 3 3 6.13401 3 10C3 13.866 6.13401 17 10 17Z" fill="#2e9cca"/></g></g></svg>