<svg width="237" height="237" viewBox="0 0 237 237" fill="none" xmlns="http://www.w3.org/2000/svg">
            <rect x="6" y="6" width="225" height="225" stroke="white" stroke-width="12"/>
            <path d="M64.4375 51.9688V68H55.0625V22.5H72.8125C76.2292 22.5 79.2292 23.125 81.8125 24.375C84.4167 25.625 86.4167 27.4062 87.8125 29.7188C89.2083 32.0104 89.9062 34.625 89.9062 37.5625C89.9062 42.0208 88.375 45.5417 85.3125 48.125C82.2708 50.6875 78.0521 51.9688 72.6562 51.9688H64.4375ZM64.4375 44.375H72.8125C75.2917 44.375 77.1771 43.7917 78.4688 42.625C79.7812 41.4583 80.4375 39.7917 80.4375 37.625C80.4375 35.3958 79.7812 33.5938 78.4688 32.2188C77.1562 30.8438 75.3438 30.1354 73.0312 30.0938H64.4375V44.375ZM116.5 58.625H100.062L96.9375 68H86.9688L103.906 22.5H112.594L129.625 68H119.656L116.5 58.625ZM102.594 51.0312H113.969L108.25 34L102.594 51.0312ZM170.562 46.2812C170.562 50.7604 169.771 54.6875 168.188 58.0625C166.604 61.4375 164.333 64.0417 161.375 65.875C158.438 67.7083 155.062 68.625 151.25 68.625C147.479 68.625 144.115 67.7188 141.156 65.9062C138.198 64.0938 135.906 61.5104 134.281 58.1562C132.656 54.7812 131.833 50.9062 131.812 46.5312V44.2812C131.812 39.8021 132.615 35.8646 134.219 32.4688C135.844 29.0521 138.125 26.4375 141.062 24.625C144.021 22.7917 147.396 21.875 151.188 21.875C154.979 21.875 158.344 22.7917 161.281 24.625C164.24 26.4375 166.521 29.0521 168.125 32.4688C169.75 35.8646 170.562 39.7917 170.562 44.25V46.2812ZM161.062 44.2188C161.062 39.4479 160.208 35.8229 158.5 33.3438C156.792 30.8646 154.354 29.625 151.188 29.625C148.042 29.625 145.615 30.8542 143.906 33.3125C142.198 35.75 141.333 39.3333 141.312 44.0625V46.2812C141.312 50.9271 142.167 54.5312 143.875 57.0938C145.583 59.6562 148.042 60.9375 151.25 60.9375C154.396 60.9375 156.812 59.7083 158.5 57.25C160.188 54.7708 161.042 51.1667 161.062 46.4375V44.2188ZM67.3125 97.5L79 130.5L90.625 97.5H102.938V143H93.5312V130.562L94.4688 109.094L82.1875 143H75.75L63.5 109.125L64.4375 130.562V143H55.0625V97.5H67.3125ZM121.094 143H111.719V97.5H121.094V143ZM165.812 137.25C164.125 139.271 161.74 140.844 158.656 141.969C155.573 143.073 152.156 143.625 148.406 143.625C144.469 143.625 141.01 142.771 138.031 141.062C135.073 139.333 132.781 136.833 131.156 133.562C129.552 130.292 128.729 126.448 128.688 122.031V118.938C128.688 114.396 129.448 110.469 130.969 107.156C132.51 103.823 134.719 101.281 137.594 99.5312C140.49 97.7604 143.875 96.875 147.75 96.875C153.146 96.875 157.365 98.1667 160.406 100.75C163.448 103.312 165.25 107.052 165.812 111.969H156.688C156.271 109.365 155.344 107.458 153.906 106.25C152.49 105.042 150.531 104.438 148.031 104.438C144.844 104.438 142.417 105.635 140.75 108.031C139.083 110.427 138.24 113.99 138.219 118.719V121.625C138.219 126.396 139.125 130 140.938 132.438C142.75 134.875 145.406 136.094 148.906 136.094C152.427 136.094 154.938 135.344 156.438 133.844V126H147.906V119.094H165.812V137.25ZM67.3125 172.5L79 205.5L90.625 172.5H102.938V218H93.5312V205.562L94.4688 184.094L82.1875 218H75.75L63.5 184.125L64.4375 205.562V218H55.0625V172.5H67.3125ZM137.375 208.625H120.938L117.812 218H107.844L124.781 172.5H133.469L150.5 218H140.531L137.375 208.625ZM123.469 201.031H134.844L129.125 184L123.469 201.031ZM191.75 218H182.375L164.125 188.062V218H154.75V172.5H164.125L182.406 202.5V172.5H191.75V218Z" fill="white"/>
            </svg>