<?xml version="1.0" standalone="no"?><svg xmlns:xlink="http://www.w3.org/1999/xlink" xmlns="http://www.w3.org/2000/svg" viewBox="0 0 1000 1500" preserveAspectRatio="xMaxYMax slice"><g transform="scale(1.4749262536873156)"><rect x="0" y="0" width="678" height="1017" fill="#ffffff"/><rect x="0" y="0" width="339" height="339" fill="#ffffff"/><g transform="translate(0,0) scale(8.475) rotate(0)"><path d="M10 0L20 10L10 20L0 10L10 0Z" fill="#14a76c"/></g><circle cx="254.25" cy="84.75" r="84.75" fill="#14a76c"/><g transform="translate(0,169.5) scale(8.475) rotate(0)"><path d="M10 0L20 10L10 20L0 10L10 0Z" fill="#ffe400"/></g><circle cx="254.25" cy="254.25" r="84.75" fill="#2e9cca"/><g transform="translate(339,0) scale(16.95) rotate(0)"><path fill-rule="evenodd" clip-rule="evenodd" d="M10 20C15.5228 20 20 15.5228 20 10C20 4.47715 15.5228 0 10 0C4.47715 0 0 4.47715 0 10C0 15.5228 4.47715 20 10 20ZM10 17C13.866 17 17 13.866 17 10C17 6.13401 13.866 3 10 3C6.13401 3 3 6.13401 3 10C3 13.866 6.13401 17 10 17Z" fill="#14a76c"/></g><circle cx="169.5" cy="508.5" r="169.5" fill="#14a76c"/><g transform="translate(339,339) scale(16.95) rotate(0)"><path fill-rule="evenodd" clip-rule="evenodd" d="M10 20C15.5228 20 20 15.5228 20 10C20 4.47715 15.5228 0 10 0C4.47715 0 0 4.47715 0 10C0 15.5228 4.47715 20 10 20ZM10 17C13.866 17 17 13.866 17 10C17 6.13401 13.866 3 10 3C6.13401 3 3 6.13401 3 10C3 13.866 6.13401 17 10 17Z" fill="#14a76c"/></g><g transform="translate(0,678) scale(16.95) rotate(0)"><path d="M10 0L20 10L10 20L0 10L10 0Z" fill="#2e9cca"/></g><g transform="translate(339,678) scale(16.95) rotate(0)"><path d="M10 0L20 10L10 20L0 10L10 0Z" fill="#14a76c"/></g></g></svg>