<svg xmlns="http://www.w3.org/2000/svg" viewBox="0 0 500 500"><g id="freepik--background-simple--inject-32"><path d="M241.18,438.47c107,3.81,191.8-92.69,221.9-178,20-56.73,19.16-119.92-10-167.35C431.74,58.31,390.31,27.53,339.83,33c-56.27,6.08-89.89,64.79-147.53,71.75s-120.53,39-144.53,84.47-14.53,120.94,26,174.87c23.09,30.75,57.43,55.05,97.82,67.07,22.2,6.6,44.56,6.23,68.31,7.28Z" style="fill:#FFE400"></path><path d="M241.18,438.47c107,3.81,191.8-92.69,221.9-178,20-56.73,19.16-119.92-10-167.35C431.74,58.31,390.31,27.53,339.83,33c-56.27,6.08-89.89,64.79-147.53,71.75s-120.53,39-144.53,84.47-14.53,120.94,26,174.87c23.09,30.75,57.43,55.05,97.82,67.07,22.2,6.6,44.56,6.23,68.31,7.28Z" style="fill:#fff;opacity:0.8"></path></g><g id="freepik--canadian-national-tower--inject-32"><polygon points="238.06 339.48 221.27 339.48 225.47 164.24 233.87 164.24 238.06 339.48" style="fill:#999;stroke:gray;stroke-miterlimit:10"></polygon><polygon points="230.01 164.24 225.81 339.48 238.06 339.48 233.87 164.24 230.01 164.24" style="fill:#fff;stroke:gray;stroke-miterlimit:10"></polygon><polygon points="232.78 339.48 225.88 339.48 225.47 164.24 231.56 164.24 232.78 339.48" style="fill:#fff;stroke:gray;stroke-miterlimit:10"></polygon><polygon points="237.92 147.16 222.13 147.16 218.69 152.62 218.69 160.8 241.08 160.8 241.37 152.33 237.92 147.16" style="fill:#fff;stroke:gray;stroke-miterlimit:10"></polygon><line x1="218.69" y1="152.62" x2="241.36" y2="152.62" style="fill:#fff;stroke:gray;stroke-miterlimit:10"></line><line x1="218.69" y1="154.63" x2="241.36" y2="154.63" style="fill:#fff;stroke:gray;stroke-miterlimit:10"></line><line x1="218.69" y1="156.64" x2="241.36" y2="156.64" style="fill:#fff;stroke:gray;stroke-miterlimit:10"></line><path d="M237.63,164.24h-15.5a3.44,3.44,0,0,1-3.44-3.44h0a3.45,3.45,0,0,1,3.44-3.45h15.5a3.45,3.45,0,0,1,3.45,3.45h0A3.44,3.44,0,0,1,237.63,164.24Z" style="fill:#fff;stroke:gray;stroke-miterlimit:10"></path><path d="M236.34,147.16H223.43a1.57,1.57,0,0,1-1.58-1.57h0a1.57,1.57,0,0,1,1.58-1.58h12.91a1.58,1.58,0,0,1,1.58,1.58h0A1.57,1.57,0,0,1,236.34,147.16Z" style="fill:#fff;stroke:gray;stroke-miterlimit:10"></path><rect x="226.44" y="104.11" width="6.31" height="39.9" style="fill:#fff;stroke:gray;stroke-miterlimit:10"></rect><polygon points="230.89 49 228.31 49 227.01 102.39 232.18 102.39 230.89 49" style="fill:#fff;stroke:gray;stroke-miterlimit:10"></polygon><path d="M231,105.26h-2.87a2.58,2.58,0,0,1-2.58-2.59h0a2.58,2.58,0,0,1,2.58-2.58H231a2.58,2.58,0,0,1,2.58,2.58h0A2.58,2.58,0,0,1,231,105.26Z" style="fill:#fff;stroke:gray;stroke-miterlimit:10"></path><polygon points="234 170.04 233.87 164.24 225.47 164.24 225.33 170.04 234 170.04" style="fill:#999;stroke:gray;stroke-miterlimit:10"></polygon></g><g id="freepik--Landscape--inject-32"><line x1="105.31" y1="388.33" x2="146.67" y2="388.33" style="fill:none;stroke:#263238;stroke-linecap:round;stroke-linejoin:round"></line><line x1="154.63" y1="388.33" x2="258.83" y2="388.33" style="fill:none;stroke:#263238;stroke-linecap:round;stroke-linejoin:round"></line><line x1="80.66" y1="408.03" x2="129.18" y2="408.03" style="fill:none;stroke:#263238;stroke-linecap:round;stroke-linejoin:round"></line><line x1="21" y1="374.05" x2="69.52" y2="374.05" style="fill:none;stroke:#263238;stroke-linecap:round;stroke-linejoin:round"></line><line x1="165.76" y1="407.04" x2="192.01" y2="407.04" style="fill:none;stroke:#263238;stroke-linecap:round;stroke-linejoin:round"></line><line x1="273.94" y1="407.04" x2="300.19" y2="407.04" style="fill:none;stroke:#263238;stroke-linecap:round;stroke-linejoin:round"></line><line x1="154.63" y1="428.22" x2="195.19" y2="428.22" style="fill:none;stroke:#263238;stroke-linecap:round;stroke-linejoin:round"></line><line x1="217.47" y1="428.22" x2="230.99" y2="428.22" style="fill:none;stroke:#263238;stroke-linecap:round;stroke-linejoin:round"></line><line x1="405.98" y1="428.22" x2="419.5" y2="428.22" style="fill:none;stroke:#263238;stroke-linecap:round;stroke-linejoin:round"></line><line x1="322.46" y1="428.22" x2="335.98" y2="428.22" style="fill:none;stroke:#263238;stroke-linecap:round;stroke-linejoin:round"></line><line x1="404.39" y1="404.09" x2="373.37" y2="404.09" style="fill:none;stroke:#263238;stroke-linecap:round;stroke-linejoin:round"></line><line x1="359.84" y1="404.09" x2="348.71" y2="404.09" style="fill:none;stroke:#263238;stroke-linecap:round;stroke-linejoin:round"></line><line x1="40.89" y1="447.42" x2="67.13" y2="447.42" style="fill:none;stroke:#263238;stroke-linecap:round;stroke-linejoin:round"></line><line x1="171.33" y1="444.47" x2="140.31" y2="444.47" style="fill:none;stroke:#263238;stroke-linecap:round;stroke-linejoin:round"></line><line x1="126.79" y1="444.47" x2="115.65" y2="444.47" style="fill:none;stroke:#263238;stroke-linecap:round;stroke-linejoin:round"></line><line x1="315.3" y1="447.42" x2="341.55" y2="447.42" style="fill:none;stroke:#263238;stroke-linecap:round;stroke-linejoin:round"></line><line x1="445.75" y1="444.47" x2="414.73" y2="444.47" style="fill:none;stroke:#263238;stroke-linecap:round;stroke-linejoin:round"></line><line x1="401.21" y1="444.47" x2="390.07" y2="444.47" style="fill:none;stroke:#263238;stroke-linecap:round;stroke-linejoin:round"></line><line x1="274.74" y1="378.98" x2="187.24" y2="378.98" style="fill:none;stroke:#263238;stroke-linecap:round;stroke-linejoin:round"></line><line x1="293.83" y1="378.98" x2="280.3" y2="378.98" style="fill:none;stroke:#263238;stroke-linecap:round;stroke-linejoin:round"></line><line x1="473.59" y1="357.8" x2="422.68" y2="357.8" style="fill:none;stroke:#263238;stroke-linecap:round;stroke-linejoin:round"></line><line x1="479.16" y1="349.43" x2="468.82" y2="349.43" style="fill:none;stroke:#263238;stroke-linecap:round;stroke-linejoin:round"></line><line x1="122.02" y1="349.43" x2="111.68" y2="349.43" style="fill:none;stroke:#263238;stroke-linecap:round;stroke-linejoin:round"></line><line x1="262.01" y1="349.43" x2="251.67" y2="349.43" style="fill:none;stroke:#263238;stroke-linecap:round;stroke-linejoin:round"></line><line x1="430.92" y1="349.43" x2="398.93" y2="349.43" style="fill:none;stroke:#263238;stroke-linecap:round;stroke-linejoin:round"></line><line x1="206.62" y1="349.43" x2="174.63" y2="349.43" style="fill:none;stroke:#263238;stroke-linecap:round;stroke-linejoin:round"></line><line x1="370.19" y1="349.43" x2="359.84" y2="349.43" style="fill:none;stroke:#263238;stroke-linecap:round;stroke-linejoin:round"></line><line x1="70.32" y1="349.43" x2="59.98" y2="349.43" style="fill:none;stroke:#263238;stroke-linecap:round;stroke-linejoin:round"></line><line x1="468.02" y1="345" x2="440.98" y2="345" style="fill:none;stroke:#263238;stroke-linecap:round;stroke-linejoin:round"></line><line x1="343.94" y1="345" x2="316.89" y2="345" style="fill:none;stroke:#263238;stroke-linecap:round;stroke-linejoin:round"></line><line x1="117.24" y1="356.82" x2="154.63" y2="356.82" style="fill:none;stroke:#263238;stroke-linecap:round;stroke-linejoin:round"></line><line x1="275.53" y1="356.82" x2="312.92" y2="356.82" style="fill:none;stroke:#263238;stroke-linecap:round;stroke-linejoin:round"></line><line x1="360.64" y1="377.01" x2="398.02" y2="377.01" style="fill:none;stroke:#263238;stroke-linecap:round;stroke-linejoin:round"></line><polygon points="343.92 324.21 301.75 324.21 301.75 298.46 223.65 298.46 183.63 298.46 179.72 302.37 100.65 302.37 100.65 329.7 349.59 329.7 349.59 323.84 343.92 324.21" style="fill:#999;stroke:gray;stroke-miterlimit:10"></polygon><polyline points="343.92 324.21 343.92 289.98 374.99 289.98 374.99 310.27 377.62 310.27 377.62 295.24 414.07 295.24 414.07 286.6 429.47 286.6 429.47 274.95 471.55 274.95 471.55 270.44 486.96 270.44 486.96 323.04" style="fill:#999;stroke:gray;stroke-miterlimit:10"></polyline><rect x="227.14" y="323.04" width="261.08" height="16.37" style="fill:#fff;stroke:gray;stroke-miterlimit:10"></rect><rect x="458.89" y="270.43" width="25.79" height="69.13" style="fill:#fff;stroke:gray;stroke-miterlimit:10"></rect><line x1="459.08" y1="273.4" x2="476.41" y2="273.4" style="fill:#fff;stroke:gray;stroke-miterlimit:10"></line><line x1="474.25" y1="275.38" x2="476.41" y2="275.38" style="fill:#fff;stroke:gray;stroke-miterlimit:10"></line><line x1="459.08" y1="275.38" x2="470.9" y2="275.38" style="fill:#fff;stroke:gray;stroke-miterlimit:10"></line><line x1="459.08" y1="277.36" x2="476.41" y2="277.36" style="fill:#fff;stroke:gray;stroke-miterlimit:10"></line><line x1="474.25" y1="279.33" x2="476.41" y2="279.33" style="fill:#fff;stroke:gray;stroke-miterlimit:10"></line><line x1="459.08" y1="279.33" x2="470.9" y2="279.33" style="fill:#fff;stroke:gray;stroke-miterlimit:10"></line><line x1="459.08" y1="281.31" x2="476.41" y2="281.31" style="fill:#fff;stroke:gray;stroke-miterlimit:10"></line><line x1="474.25" y1="283.29" x2="476.41" y2="283.29" style="fill:#fff;stroke:gray;stroke-miterlimit:10"></line><line x1="459.08" y1="283.29" x2="470.9" y2="283.29" style="fill:#fff;stroke:gray;stroke-miterlimit:10"></line><line x1="459.08" y1="285.27" x2="476.41" y2="285.27" style="fill:#fff;stroke:gray;stroke-miterlimit:10"></line><line x1="474.25" y1="287.25" x2="476.41" y2="287.25" style="fill:#fff;stroke:gray;stroke-miterlimit:10"></line><line x1="459.08" y1="287.25" x2="470.9" y2="287.25" style="fill:#fff;stroke:gray;stroke-miterlimit:10"></line><line x1="459.08" y1="289.23" x2="476.41" y2="289.23" style="fill:#fff;stroke:gray;stroke-miterlimit:10"></line><line x1="474.25" y1="291.21" x2="476.41" y2="291.21" style="fill:#fff;stroke:gray;stroke-miterlimit:10"></line><line x1="459.08" y1="291.21" x2="470.9" y2="291.21" style="fill:#fff;stroke:gray;stroke-miterlimit:10"></line><line x1="459.08" y1="293.19" x2="476.41" y2="293.19" style="fill:#fff;stroke:gray;stroke-miterlimit:10"></line><line x1="474.25" y1="295.17" x2="476.41" y2="295.17" style="fill:#fff;stroke:gray;stroke-miterlimit:10"></line><line x1="459.08" y1="295.17" x2="470.9" y2="295.17" style="fill:#fff;stroke:gray;stroke-miterlimit:10"></line><line x1="459.08" y1="297.15" x2="476.41" y2="297.15" style="fill:#fff;stroke:gray;stroke-miterlimit:10"></line><line x1="474.25" y1="299.13" x2="476.41" y2="299.13" style="fill:#fff;stroke:gray;stroke-miterlimit:10"></line><line x1="459.08" y1="299.13" x2="470.9" y2="299.13" style="fill:#fff;stroke:gray;stroke-miterlimit:10"></line><line x1="459.08" y1="301.1" x2="476.41" y2="301.1" style="fill:#fff;stroke:gray;stroke-miterlimit:10"></line><line x1="474.25" y1="303.08" x2="476.41" y2="303.08" style="fill:#fff;stroke:gray;stroke-miterlimit:10"></line><line x1="459.08" y1="303.08" x2="470.9" y2="303.08" style="fill:#fff;stroke:gray;stroke-miterlimit:10"></line><line x1="459.08" y1="305.06" x2="476.41" y2="305.06" style="fill:#fff;stroke:gray;stroke-miterlimit:10"></line><line x1="474.25" y1="307.04" x2="476.41" y2="307.04" style="fill:#fff;stroke:gray;stroke-miterlimit:10"></line><line x1="459.08" y1="307.04" x2="470.9" y2="307.04" style="fill:#fff;stroke:gray;stroke-miterlimit:10"></line><line x1="459.08" y1="309.02" x2="476.41" y2="309.02" style="fill:#fff;stroke:gray;stroke-miterlimit:10"></line><line x1="474.25" y1="311" x2="476.41" y2="311" style="fill:#fff;stroke:gray;stroke-miterlimit:10"></line><line x1="459.08" y1="311" x2="470.9" y2="311" style="fill:#fff;stroke:gray;stroke-miterlimit:10"></line><line x1="459.08" y1="312.98" x2="476.41" y2="312.98" style="fill:#fff;stroke:gray;stroke-miterlimit:10"></line><line x1="474.25" y1="314.96" x2="476.41" y2="314.96" style="fill:#fff;stroke:gray;stroke-miterlimit:10"></line><line x1="459.08" y1="314.96" x2="470.9" y2="314.96" style="fill:#fff;stroke:gray;stroke-miterlimit:10"></line><line x1="459.08" y1="316.94" x2="476.41" y2="316.94" style="fill:#fff;stroke:gray;stroke-miterlimit:10"></line><line x1="474.25" y1="318.92" x2="476.41" y2="318.92" style="fill:#fff;stroke:gray;stroke-miterlimit:10"></line><line x1="459.08" y1="318.92" x2="470.9" y2="318.92" style="fill:#fff;stroke:gray;stroke-miterlimit:10"></line><line x1="459.08" y1="320.9" x2="476.41" y2="320.9" style="fill:#fff;stroke:gray;stroke-miterlimit:10"></line><line x1="474.25" y1="322.87" x2="476.41" y2="322.87" style="fill:#fff;stroke:gray;stroke-miterlimit:10"></line><line x1="459.08" y1="322.87" x2="470.9" y2="322.87" style="fill:#fff;stroke:gray;stroke-miterlimit:10"></line><line x1="459.08" y1="324.85" x2="476.41" y2="324.85" style="fill:#fff;stroke:gray;stroke-miterlimit:10"></line><line x1="474.25" y1="326.83" x2="476.41" y2="326.83" style="fill:#fff;stroke:gray;stroke-miterlimit:10"></line><line x1="459.08" y1="326.83" x2="470.9" y2="326.83" style="fill:#fff;stroke:gray;stroke-miterlimit:10"></line><rect x="181.94" y="271.19" width="15.34" height="67.3" style="fill:#999;stroke:gray;stroke-miterlimit:10"></rect><rect x="192.08" y="304.85" width="19.1" height="33.65" style="fill:#fff;stroke:gray;stroke-miterlimit:10"></rect><rect x="267.53" y="237.75" width="20.29" height="100.74" style="fill:#999;stroke:gray;stroke-miterlimit:10"></rect><rect x="320.51" y="250.15" width="19.91" height="88.34" style="fill:#999;stroke:gray;stroke-miterlimit:10"></rect><rect x="293.83" y="264.81" width="36.82" height="73.69" style="fill:#fff;stroke:gray;stroke-miterlimit:10"></rect><rect x="297.59" y="268.56" width="29.31" height="69.93" style="fill:#999;stroke:gray;stroke-miterlimit:10"></rect><rect x="300.6" y="273.82" width="23.3" height="64.67" style="fill:#fff;stroke:gray;stroke-miterlimit:10"></rect><rect x="264.97" y="300.88" width="19.1" height="37.62" style="fill:#fff;stroke:gray;stroke-miterlimit:10"></rect><rect x="210.87" y="287.35" width="19.1" height="51.15" style="fill:#fff;stroke:gray;stroke-miterlimit:10"></rect><rect x="175.55" y="283.59" width="15.34" height="54.91" style="fill:#fff;stroke:gray;stroke-miterlimit:10"></rect><rect x="216.18" y="285.79" width="11.21" height="53.77" style="fill:#fff;stroke:gray;stroke-miterlimit:10"></rect><rect x="252.5" y="306.26" width="11.21" height="33.3" style="fill:#fff;stroke:gray;stroke-miterlimit:10"></rect><rect x="297.6" y="293.83" width="23.88" height="45.73" style="fill:#fff;stroke:gray;stroke-miterlimit:10"></rect><rect x="302.72" y="293.83" width="13.64" height="45.73" style="fill:#fff;stroke:gray;stroke-miterlimit:10"></rect><rect x="306.86" y="293.83" width="5.35" height="45.73" style="fill:#fff;stroke:gray;stroke-miterlimit:10"></rect><rect x="334.65" y="293.83" width="23.88" height="45.73" style="fill:#fff;stroke:gray;stroke-miterlimit:10"></rect><rect x="339.77" y="293.83" width="13.64" height="45.73" style="fill:#fff;stroke:gray;stroke-miterlimit:10"></rect><rect x="343.92" y="293.83" width="5.35" height="45.73" style="fill:#fff;stroke:gray;stroke-miterlimit:10"></rect><rect x="255.67" y="301.63" width="4.38" height="37.93" style="fill:#fff;stroke:gray;stroke-miterlimit:10"></rect><rect x="188.87" y="327.23" width="13.64" height="12.33" style="fill:#fff;stroke:gray;stroke-miterlimit:10"></rect><rect x="187.19" y="330.53" width="17.01" height="9.03" style="fill:#999;stroke:gray;stroke-miterlimit:10"></rect><rect x="205.45" y="322.84" width="13.64" height="16.72" style="fill:#fff;stroke:gray;stroke-miterlimit:10"></rect><rect x="203.77" y="327.31" width="17.01" height="12.25" style="fill:#999;stroke:gray;stroke-miterlimit:10"></rect><rect x="384.87" y="288.47" width="31.93" height="51.09" style="fill:#fff;stroke:gray;stroke-miterlimit:10"></rect><line x1="385.11" y1="290.66" x2="406.56" y2="290.66" style="fill:#fff;stroke:gray;stroke-miterlimit:10"></line><line x1="403.88" y1="292.12" x2="406.56" y2="292.12" style="fill:#fff;stroke:gray;stroke-miterlimit:10"></line><line x1="385.11" y1="292.12" x2="399.73" y2="292.12" style="fill:#fff;stroke:gray;stroke-miterlimit:10"></line><line x1="385.11" y1="293.59" x2="406.56" y2="293.59" style="fill:#fff;stroke:gray;stroke-miterlimit:10"></line><line x1="403.88" y1="295.05" x2="406.56" y2="295.05" style="fill:#fff;stroke:gray;stroke-miterlimit:10"></line><line x1="385.11" y1="295.05" x2="399.73" y2="295.05" style="fill:#fff;stroke:gray;stroke-miterlimit:10"></line><line x1="385.11" y1="296.51" x2="406.56" y2="296.51" style="fill:#fff;stroke:gray;stroke-miterlimit:10"></line><line x1="403.88" y1="297.98" x2="406.56" y2="297.98" style="fill:#fff;stroke:gray;stroke-miterlimit:10"></line><line x1="385.11" y1="297.98" x2="399.73" y2="297.98" style="fill:#fff;stroke:gray;stroke-miterlimit:10"></line><line x1="385.11" y1="299.44" x2="406.56" y2="299.44" style="fill:#fff;stroke:gray;stroke-miterlimit:10"></line><line x1="403.88" y1="300.9" x2="406.56" y2="300.9" style="fill:#fff;stroke:gray;stroke-miterlimit:10"></line><line x1="385.11" y1="300.9" x2="399.73" y2="300.9" style="fill:#fff;stroke:gray;stroke-miterlimit:10"></line><line x1="385.11" y1="302.36" x2="406.56" y2="302.36" style="fill:#fff;stroke:gray;stroke-miterlimit:10"></line><line x1="403.88" y1="303.83" x2="406.56" y2="303.83" style="fill:#fff;stroke:gray;stroke-miterlimit:10"></line><line x1="385.11" y1="303.83" x2="399.73" y2="303.83" style="fill:#fff;stroke:gray;stroke-miterlimit:10"></line><line x1="385.11" y1="305.29" x2="406.56" y2="305.29" style="fill:#fff;stroke:gray;stroke-miterlimit:10"></line><line x1="403.88" y1="306.75" x2="406.56" y2="306.75" style="fill:#fff;stroke:gray;stroke-miterlimit:10"></line><line x1="385.11" y1="306.75" x2="399.73" y2="306.75" style="fill:#fff;stroke:gray;stroke-miterlimit:10"></line><line x1="385.11" y1="308.21" x2="406.56" y2="308.21" style="fill:#fff;stroke:gray;stroke-miterlimit:10"></line><line x1="403.88" y1="309.68" x2="406.56" y2="309.68" style="fill:#fff;stroke:gray;stroke-miterlimit:10"></line><line x1="385.11" y1="309.68" x2="399.73" y2="309.68" style="fill:#fff;stroke:gray;stroke-miterlimit:10"></line><line x1="385.11" y1="311.14" x2="406.56" y2="311.14" style="fill:#fff;stroke:gray;stroke-miterlimit:10"></line><line x1="403.88" y1="312.6" x2="406.56" y2="312.6" style="fill:#fff;stroke:gray;stroke-miterlimit:10"></line><line x1="385.11" y1="312.6" x2="399.73" y2="312.6" style="fill:#fff;stroke:gray;stroke-miterlimit:10"></line><line x1="385.11" y1="314.06" x2="406.56" y2="314.06" style="fill:#fff;stroke:gray;stroke-miterlimit:10"></line><line x1="403.88" y1="315.53" x2="406.56" y2="315.53" style="fill:#fff;stroke:gray;stroke-miterlimit:10"></line><line x1="385.11" y1="315.53" x2="399.73" y2="315.53" style="fill:#fff;stroke:gray;stroke-miterlimit:10"></line><line x1="385.11" y1="316.99" x2="406.56" y2="316.99" style="fill:#fff;stroke:gray;stroke-miterlimit:10"></line><line x1="403.88" y1="318.45" x2="406.56" y2="318.45" style="fill:#fff;stroke:gray;stroke-miterlimit:10"></line><line x1="385.11" y1="318.45" x2="399.73" y2="318.45" style="fill:#fff;stroke:gray;stroke-miterlimit:10"></line><line x1="385.11" y1="319.92" x2="406.56" y2="319.92" style="fill:#fff;stroke:gray;stroke-miterlimit:10"></line><line x1="403.88" y1="321.38" x2="406.56" y2="321.38" style="fill:#fff;stroke:gray;stroke-miterlimit:10"></line><line x1="385.11" y1="321.38" x2="399.73" y2="321.38" style="fill:#fff;stroke:gray;stroke-miterlimit:10"></line><line x1="385.11" y1="322.84" x2="406.56" y2="322.84" style="fill:#fff;stroke:gray;stroke-miterlimit:10"></line><line x1="403.88" y1="324.3" x2="406.56" y2="324.3" style="fill:#fff;stroke:gray;stroke-miterlimit:10"></line><line x1="385.11" y1="324.3" x2="399.73" y2="324.3" style="fill:#fff;stroke:gray;stroke-miterlimit:10"></line><line x1="385.11" y1="325.77" x2="406.56" y2="325.77" style="fill:#fff;stroke:gray;stroke-miterlimit:10"></line><line x1="403.88" y1="327.23" x2="406.56" y2="327.23" style="fill:#fff;stroke:gray;stroke-miterlimit:10"></line><line x1="385.11" y1="327.23" x2="399.73" y2="327.23" style="fill:#fff;stroke:gray;stroke-miterlimit:10"></line><line x1="385.11" y1="328.69" x2="406.56" y2="328.69" style="fill:#fff;stroke:gray;stroke-miterlimit:10"></line><line x1="403.88" y1="330.15" x2="406.56" y2="330.15" style="fill:#fff;stroke:gray;stroke-miterlimit:10"></line><line x1="385.11" y1="330.15" x2="399.73" y2="330.15" style="fill:#fff;stroke:gray;stroke-miterlimit:10"></line><rect x="446.78" y="263.36" width="17.06" height="6.83" style="fill:#fff;stroke:gray;stroke-miterlimit:10"></rect><rect x="436.55" y="270.43" width="31.93" height="69.13" style="fill:#fff;stroke:gray;stroke-miterlimit:10"></rect><polygon points="477.41 331.63 477.41 336.5 475.15 336.5 475.15 331.63 470.26 331.63 470.26 334.24 468.37 334.24 468.37 331.63 430.34 331.63 430.34 335.37 426.95 335.37 426.95 331.63 417.54 331.63 417.54 334.99 415.66 334.99 415.66 331.63 371.6 331.63 371.6 337.63 368.97 337.63 368.97 331.63 343.36 331.63 343.36 336.88 341.11 336.88 341.11 331.63 327.13 331.63 327.13 338.27 324.16 338.27 324.16 331.63 290.65 331.63 290.65 338.76 289.14 338.76 289.14 331.63 277.85 331.63 277.85 336.5 275.21 336.5 275.21 331.63 251.49 331.63 251.49 338.01 248.48 338.01 248.48 331.63 227.37 331.63 227.37 339.61 488.45 339.61 488.45 331.63 477.41 331.63" style="fill:#fff;stroke:gray;stroke-miterlimit:10"></polygon><rect x="258.68" y="332.01" width="11.78" height="7.55" style="fill:#999;stroke:gray;stroke-miterlimit:10"></rect><rect x="305.5" y="332.01" width="11.78" height="7.55" style="fill:#999;stroke:gray;stroke-miterlimit:10"></rect><rect x="376.48" y="332.01" width="11.78" height="7.55" style="fill:#999;stroke:gray;stroke-miterlimit:10"></rect><rect x="393.85" y="332.01" width="11.78" height="7.55" style="fill:#999;stroke:gray;stroke-miterlimit:10"></rect><rect x="440.09" y="332.01" width="22.97" height="7.55" style="fill:#999;stroke:gray;stroke-miterlimit:10"></rect><line x1="436.79" y1="273.4" x2="458.24" y2="273.4" style="fill:#fff;stroke:gray;stroke-miterlimit:10"></line><line x1="455.56" y1="275.38" x2="458.24" y2="275.38" style="fill:#fff;stroke:gray;stroke-miterlimit:10"></line><line x1="436.79" y1="275.38" x2="451.41" y2="275.38" style="fill:#fff;stroke:gray;stroke-miterlimit:10"></line><line x1="436.79" y1="277.36" x2="458.24" y2="277.36" style="fill:#fff;stroke:gray;stroke-miterlimit:10"></line><line x1="455.56" y1="279.33" x2="458.24" y2="279.33" style="fill:#fff;stroke:gray;stroke-miterlimit:10"></line><line x1="436.79" y1="279.33" x2="451.41" y2="279.33" style="fill:#fff;stroke:gray;stroke-miterlimit:10"></line><line x1="436.79" y1="281.31" x2="458.24" y2="281.31" style="fill:#fff;stroke:gray;stroke-miterlimit:10"></line><line x1="455.56" y1="283.29" x2="458.24" y2="283.29" style="fill:#fff;stroke:gray;stroke-miterlimit:10"></line><line x1="436.79" y1="283.29" x2="451.41" y2="283.29" style="fill:#fff;stroke:gray;stroke-miterlimit:10"></line><line x1="436.79" y1="285.27" x2="458.24" y2="285.27" style="fill:#fff;stroke:gray;stroke-miterlimit:10"></line><line x1="455.56" y1="287.25" x2="458.24" y2="287.25" style="fill:#fff;stroke:gray;stroke-miterlimit:10"></line><line x1="436.79" y1="287.25" x2="451.41" y2="287.25" style="fill:#fff;stroke:gray;stroke-miterlimit:10"></line><line x1="436.79" y1="289.23" x2="458.24" y2="289.23" style="fill:#fff;stroke:gray;stroke-miterlimit:10"></line><line x1="455.56" y1="291.21" x2="458.24" y2="291.21" style="fill:#fff;stroke:gray;stroke-miterlimit:10"></line><line x1="436.79" y1="291.21" x2="451.41" y2="291.21" style="fill:#fff;stroke:gray;stroke-miterlimit:10"></line><line x1="436.79" y1="293.19" x2="458.24" y2="293.19" style="fill:#fff;stroke:gray;stroke-miterlimit:10"></line><line x1="455.56" y1="295.17" x2="458.24" y2="295.17" style="fill:#fff;stroke:gray;stroke-miterlimit:10"></line><line x1="436.79" y1="295.17" x2="451.41" y2="295.17" style="fill:#fff;stroke:gray;stroke-miterlimit:10"></line><line x1="436.79" y1="297.15" x2="458.24" y2="297.15" style="fill:#fff;stroke:gray;stroke-miterlimit:10"></line><line x1="455.56" y1="299.13" x2="458.24" y2="299.13" style="fill:#fff;stroke:gray;stroke-miterlimit:10"></line><line x1="436.79" y1="299.13" x2="451.41" y2="299.13" style="fill:#fff;stroke:gray;stroke-miterlimit:10"></line><line x1="436.79" y1="301.1" x2="458.24" y2="301.1" style="fill:#fff;stroke:gray;stroke-miterlimit:10"></line><line x1="455.56" y1="303.08" x2="458.24" y2="303.08" style="fill:#fff;stroke:gray;stroke-miterlimit:10"></line><line x1="436.79" y1="303.08" x2="451.41" y2="303.08" style="fill:#fff;stroke:gray;stroke-miterlimit:10"></line><line x1="436.79" y1="305.06" x2="458.24" y2="305.06" style="fill:#fff;stroke:gray;stroke-miterlimit:10"></line><line x1="455.56" y1="307.04" x2="458.24" y2="307.04" style="fill:#fff;stroke:gray;stroke-miterlimit:10"></line><line x1="436.79" y1="307.04" x2="451.41" y2="307.04" style="fill:#fff;stroke:gray;stroke-miterlimit:10"></line><line x1="436.79" y1="309.02" x2="458.24" y2="309.02" style="fill:#fff;stroke:gray;stroke-miterlimit:10"></line><line x1="455.56" y1="311" x2="458.24" y2="311" style="fill:#fff;stroke:gray;stroke-miterlimit:10"></line><line x1="436.79" y1="311" x2="451.41" y2="311" style="fill:#fff;stroke:gray;stroke-miterlimit:10"></line><line x1="436.79" y1="312.98" x2="458.24" y2="312.98" style="fill:#fff;stroke:gray;stroke-miterlimit:10"></line><line x1="455.56" y1="314.96" x2="458.24" y2="314.96" style="fill:#fff;stroke:gray;stroke-miterlimit:10"></line><line x1="436.79" y1="314.96" x2="451.41" y2="314.96" style="fill:#fff;stroke:gray;stroke-miterlimit:10"></line><line x1="436.79" y1="316.94" x2="458.24" y2="316.94" style="fill:#fff;stroke:gray;stroke-miterlimit:10"></line><line x1="455.56" y1="318.92" x2="458.24" y2="318.92" style="fill:#fff;stroke:gray;stroke-miterlimit:10"></line><line x1="436.79" y1="318.92" x2="451.41" y2="318.92" style="fill:#fff;stroke:gray;stroke-miterlimit:10"></line><line x1="436.79" y1="320.9" x2="458.24" y2="320.9" style="fill:#fff;stroke:gray;stroke-miterlimit:10"></line><line x1="455.56" y1="322.87" x2="458.24" y2="322.87" style="fill:#fff;stroke:gray;stroke-miterlimit:10"></line><line x1="436.79" y1="322.87" x2="451.41" y2="322.87" style="fill:#fff;stroke:gray;stroke-miterlimit:10"></line><line x1="436.79" y1="324.85" x2="458.24" y2="324.85" style="fill:#fff;stroke:gray;stroke-miterlimit:10"></line><line x1="455.56" y1="326.83" x2="458.24" y2="326.83" style="fill:#fff;stroke:gray;stroke-miterlimit:10"></line><line x1="436.79" y1="326.83" x2="451.41" y2="326.83" style="fill:#fff;stroke:gray;stroke-miterlimit:10"></line><polygon points="77.79 339.56 77.79 288.05 69.9 288.05 69.9 291.05 61.64 291.05 61.64 327.5 36.84 327.5 36.84 287.3 25.94 287.3 25.94 277.15 12.79 277.15 12.79 339.56 77.79 339.56" style="fill:#999;stroke:gray;stroke-miterlimit:10"></polygon><rect x="30.41" y="297.57" width="17.01" height="41.99" style="fill:#fff;stroke:gray;stroke-miterlimit:10"></rect><rect x="46.88" y="316.18" width="17.01" height="23.38" style="fill:#fff;stroke:gray;stroke-miterlimit:10"></rect></g><g id="freepik--rogers-centre--inject-32"><path d="M185.58,335.84c-.41-23-27.13-44.11-60.05-44.11s-59.64,21.13-60,44.11Z" style="fill:#fff;stroke:gray;stroke-miterlimit:10"></path><path d="M173.06,335.84c-.2-18.25-21.4-35.08-47.53-35.08S78.2,317.59,78,335.84Z" style="fill:#999;stroke:gray;stroke-miterlimit:10"></path><rect x="63.89" y="320.43" width="122.77" height="19.13" style="fill:#fff;stroke:gray;stroke-miterlimit:10"></rect><rect x="70.27" y="326.81" width="4.78" height="11.69" style="fill:#999;stroke:gray;stroke-miterlimit:10"></rect><rect x="76.65" y="326.81" width="4.78" height="11.69" style="fill:#999;stroke:gray;stroke-miterlimit:10"></rect><rect x="83.02" y="326.81" width="4.78" height="11.69" style="fill:#999;stroke:gray;stroke-miterlimit:10"></rect><rect x="103.75" y="326.81" width="4.78" height="11.69" style="fill:#999;stroke:gray;stroke-miterlimit:10"></rect><rect x="110.13" y="326.81" width="4.78" height="11.69" style="fill:#999;stroke:gray;stroke-miterlimit:10"></rect><rect x="116.51" y="326.81" width="4.78" height="11.69" style="fill:#999;stroke:gray;stroke-miterlimit:10"></rect><rect x="137.23" y="326.81" width="4.78" height="11.69" style="fill:#999;stroke:gray;stroke-miterlimit:10"></rect><rect x="143.61" y="326.81" width="4.78" height="11.69" style="fill:#999;stroke:gray;stroke-miterlimit:10"></rect><rect x="149.99" y="326.81" width="4.78" height="11.69" style="fill:#999;stroke:gray;stroke-miterlimit:10"></rect><rect x="170.72" y="326.81" width="3.62" height="11.69" style="fill:#999;stroke:gray;stroke-miterlimit:10"></rect><rect x="175.55" y="326.81" width="3.62" height="11.69" style="fill:#999;stroke:gray;stroke-miterlimit:10"></rect><rect x="180.38" y="326.81" width="3.62" height="11.69" style="fill:#999;stroke:gray;stroke-miterlimit:10"></rect></g><g id="freepik--Clouds--inject-32"><path d="M192.61,81.41c-5.57-3-8.1-.51-10.12-3s5.57-9.1-9.61-15.68c0,0-1-14.17-21.76-14.68s-15.18,14.17-20.75,17.71-7.08-2-12.65,1.52-3,10.63-7.59,11.64-10.63-4.55-16.19-1-5.57,6.58-8.1,6.58-7.59-2-10.62,0S68.64,89,68.64,89h128S198.18,84.45,192.61,81.41Z" style="fill:none;stroke:#999;stroke-linecap:round;stroke-linejoin:round"></path><path d="M116.88,79.33a17.42,17.42,0,0,1-2.26,1.07" style="fill:none;stroke:#999;stroke-linecap:round;stroke-linejoin:round"></path><path d="M144.27,55.69a8.67,8.67,0,0,0-5,6.18c-.92,4.63-3.08,7.72-5.55,8s-11.74-.62-13.28,2.78a13.18,13.18,0,0,0-.87,3.1" style="fill:none;stroke:#999;stroke-linecap:round;stroke-linejoin:round"></path><path d="M403.16,134.93c-3-1.63-4.34-.27-5.43-1.63s3-4.89-5.16-8.42c0,0-.54-7.6-11.68-7.87s-8.14,7.6-11.13,9.5-3.8-1.09-6.79.81-1.62,5.71-4.07,6.25-5.7-2.44-8.69-.54-3,3.53-4.34,3.53-4.07-1.09-5.7,0-3.53,2.44-3.53,2.44h68.69S406.15,136.56,403.16,134.93Z" style="fill:none;stroke:#999;stroke-linecap:round;stroke-linejoin:round"></path><path d="M362.52,133.81a8.18,8.18,0,0,1-1.21.57" style="fill:none;stroke:#999;stroke-linecap:round;stroke-linejoin:round"></path><path d="M377.22,121.13a4.62,4.62,0,0,0-2.65,3.31c-.5,2.49-1.66,4.14-3,4.31s-6.29-.33-7.12,1.49a7.54,7.54,0,0,0-.47,1.67" style="fill:none;stroke:#999;stroke-linecap:round;stroke-linejoin:round"></path><path d="M190,136.22c-2-1.11-3-.18-3.7-1.11s2-3.33-3.52-5.74c0,0-.37-5.18-8-5.37s-5.55,5.19-7.59,6.48-2.59-.74-4.63.56-1.11,3.89-2.78,4.26-3.88-1.67-5.92-.37-2,2.4-3,2.4-2.78-.74-3.89,0-2.41,1.67-2.41,1.67h46.84S192,137.33,190,136.22Z" style="fill:none;stroke:#999;stroke-linecap:round;stroke-linejoin:round"></path><path d="M162.24,135.46a5.79,5.79,0,0,1-.82.39" style="fill:none;stroke:#999;stroke-linecap:round;stroke-linejoin:round"></path><path d="M172.26,126.81a3.18,3.18,0,0,0-1.81,2.26c-.33,1.7-1.13,2.83-2,2.94s-4.29-.22-4.86,1a4.73,4.73,0,0,0-.31,1.13" style="fill:none;stroke:#999;stroke-linecap:round;stroke-linejoin:round"></path><path d="M120.56,216.73c-3.27-1.78-4.76-.3-6-1.78s3.27-5.36-5.66-9.23c0,0-.59-8.33-12.79-8.63S87.23,205.42,84,207.51s-4.16-1.2-7.44.89-1.78,6.25-4.46,6.84-6.25-2.67-9.52-.59-3.28,3.87-4.77,3.87-4.46-1.19-6.25,0-3.87,2.68-3.87,2.68h75.3S123.84,218.52,120.56,216.73Z" style="fill:none;stroke:#999;stroke-linecap:round;stroke-linejoin:round"></path><path d="M76,215.51a12.16,12.16,0,0,1-1.33.63" style="fill:none;stroke:#999;stroke-linecap:round;stroke-linejoin:round"></path><path d="M92.13,201.61a5.07,5.07,0,0,0-2.91,3.63C88.68,208,87.4,209.78,86,210s-6.9-.36-7.81,1.64a8.08,8.08,0,0,0-.51,1.82" style="fill:none;stroke:#999;stroke-linecap:round;stroke-linejoin:round"></path></g><g id="freepik--Railing--inject-32"><line x1="13" y1="473.9" x2="487" y2="473.9" style="fill:none;stroke:#263238;stroke-miterlimit:10"></line><rect x="46" y="352" width="5" height="121.9" style="fill:#fff;stroke:#263238;stroke-miterlimit:10"></rect><rect x="64" y="352" width="5" height="121.9" style="fill:#fff;stroke:#263238;stroke-miterlimit:10"></rect><rect x="82" y="352" width="5" height="121.9" style="fill:#fff;stroke:#263238;stroke-miterlimit:10"></rect><rect x="100" y="352" width="5" height="121.9" style="fill:#fff;stroke:#263238;stroke-miterlimit:10"></rect><rect x="118" y="352" width="5" height="121.9" style="fill:#fff;stroke:#263238;stroke-miterlimit:10"></rect><rect x="136" y="352" width="5" height="121.9" style="fill:#fff;stroke:#263238;stroke-miterlimit:10"></rect><rect x="154" y="352" width="5" height="121.9" style="fill:#fff;stroke:#263238;stroke-miterlimit:10"></rect><rect x="172" y="352" width="5" height="121.9" style="fill:#fff;stroke:#263238;stroke-miterlimit:10"></rect><rect x="190" y="352" width="5" height="121.9" style="fill:#fff;stroke:#263238;stroke-miterlimit:10"></rect><rect x="208" y="352" width="5" height="121.9" style="fill:#fff;stroke:#263238;stroke-miterlimit:10"></rect><rect x="226" y="352" width="5" height="121.9" style="fill:#fff;stroke:#263238;stroke-miterlimit:10"></rect><rect x="244" y="352" width="5" height="121.9" style="fill:#fff;stroke:#263238;stroke-miterlimit:10"></rect><rect x="262" y="352" width="5" height="121.9" style="fill:#fff;stroke:#263238;stroke-miterlimit:10"></rect><rect x="280" y="352" width="5" height="121.9" style="fill:#fff;stroke:#263238;stroke-miterlimit:10"></rect><rect x="298" y="352" width="5" height="121.9" style="fill:#fff;stroke:#263238;stroke-miterlimit:10"></rect><rect x="316" y="352" width="5" height="121.9" style="fill:#fff;stroke:#263238;stroke-miterlimit:10"></rect><rect x="334" y="352" width="5" height="121.9" style="fill:#fff;stroke:#263238;stroke-miterlimit:10"></rect><rect x="352" y="352" width="5" height="121.9" style="fill:#fff;stroke:#263238;stroke-miterlimit:10"></rect><rect x="370" y="352" width="5" height="121.9" style="fill:#fff;stroke:#263238;stroke-miterlimit:10"></rect><rect x="388" y="352" width="5" height="121.9" style="fill:#fff;stroke:#263238;stroke-miterlimit:10"></rect><rect x="406" y="352" width="5" height="121.9" style="fill:#fff;stroke:#263238;stroke-miterlimit:10"></rect><rect x="424" y="352" width="5" height="121.9" style="fill:#fff;stroke:#263238;stroke-miterlimit:10"></rect><rect x="442" y="352" width="5" height="121.9" style="fill:#fff;stroke:#263238;stroke-miterlimit:10"></rect><rect x="460" y="352" width="5" height="121.9" style="fill:#fff;stroke:#263238;stroke-miterlimit:10"></rect><rect x="46" y="352" width="5" height="4.33" style="fill:#263238;stroke:#263238;stroke-miterlimit:10"></rect><rect x="64" y="352" width="5" height="4.33" style="fill:#263238;stroke:#263238;stroke-miterlimit:10"></rect><rect x="82" y="352" width="5" height="4.33" style="fill:#263238;stroke:#263238;stroke-miterlimit:10"></rect><rect x="100" y="352" width="5" height="4.33" style="fill:#263238;stroke:#263238;stroke-miterlimit:10"></rect><rect x="118" y="352" width="5" height="4.33" style="fill:#263238;stroke:#263238;stroke-miterlimit:10"></rect><rect x="136" y="352" width="5" height="4.33" style="fill:#263238;stroke:#263238;stroke-miterlimit:10"></rect><rect x="154" y="352" width="5" height="4.33" style="fill:#263238;stroke:#263238;stroke-miterlimit:10"></rect><rect x="172" y="352" width="5" height="4.33" style="fill:#263238;stroke:#263238;stroke-miterlimit:10"></rect><rect x="190" y="352" width="5" height="4.33" style="fill:#263238;stroke:#263238;stroke-miterlimit:10"></rect><rect x="208" y="352" width="5" height="4.33" style="fill:#263238;stroke:#263238;stroke-miterlimit:10"></rect><rect x="226" y="352" width="5" height="4.33" style="fill:#263238;stroke:#263238;stroke-miterlimit:10"></rect><rect x="244" y="352" width="5" height="4.33" style="fill:#263238;stroke:#263238;stroke-miterlimit:10"></rect><rect x="262" y="352" width="5" height="4.33" style="fill:#263238;stroke:#263238;stroke-miterlimit:10"></rect><rect x="280" y="352" width="5" height="4.33" style="fill:#263238;stroke:#263238;stroke-miterlimit:10"></rect><rect x="298" y="352" width="5" height="4.33" style="fill:#263238;stroke:#263238;stroke-miterlimit:10"></rect><rect x="316" y="352" width="5" height="4.33" style="fill:#263238;stroke:#263238;stroke-miterlimit:10"></rect><rect x="334" y="352" width="5" height="4.33" style="fill:#263238;stroke:#263238;stroke-miterlimit:10"></rect><rect x="352" y="352" width="5" height="4.33" style="fill:#263238;stroke:#263238;stroke-miterlimit:10"></rect><rect x="370" y="352" width="5" height="4.33" style="fill:#263238;stroke:#263238;stroke-miterlimit:10"></rect><rect x="388" y="352" width="5" height="4.33" style="fill:#263238;stroke:#263238;stroke-miterlimit:10"></rect><rect x="406" y="352" width="5" height="4.33" style="fill:#263238;stroke:#263238;stroke-miterlimit:10"></rect><rect x="424" y="352" width="5" height="4.33" style="fill:#263238;stroke:#263238;stroke-miterlimit:10"></rect><rect x="442" y="352" width="5" height="4.33" style="fill:#263238;stroke:#263238;stroke-miterlimit:10"></rect><rect x="460" y="352" width="5" height="4.33" style="fill:#263238;stroke:#263238;stroke-miterlimit:10"></rect><rect x="11" y="348.66" width="475" height="3" style="fill:#fff;stroke:#263238;stroke-miterlimit:10"></rect></g><g id="freepik--Tree--inject-32"><path d="M309,227.38s52.19,5.17,78.65,37.52c0,0,27.94-37.48,78.15-36.71A101.46,101.46,0,1,0,309,227.47Z" style="fill:#FFE400"></path><path d="M309,227.38s52.19,5.17,78.65,37.52c0,0,27.94-37.48,78.15-36.71A101.46,101.46,0,1,0,309,227.47Z" style="fill:#fff;opacity:0.5"></path><polygon points="385.89 69.15 384.13 468.2 392.94 468.2 385.89 69.15" style="fill:#263238"></polygon><path d="M388.53,255s17.62-31.71,49.34-41.4c0,0-33.48,7.92-50.22,35.24Z" style="fill:#263238"></path><path d="M388.53,165.18s17.62-31.71,49.34-41.41c0,0-33.48,7.93-50.22,35.24Z" style="fill:#263238"></path><path d="M388.53,210.11s17.62-31.71,49.34-41.4c0,0-33.48,7.92-50.22,35.24Z" style="fill:#263238"></path><path d="M385.92,188.09s-17-31.72-47.6-41.41c0,0,32.3,7.93,48.45,35.24Z" style="fill:#263238"></path><path d="M385.92,232.14s-17-31.72-47.6-41.41c0,0,32.3,7.93,48.45,35.24Z" style="fill:#263238"></path><rect x="361.47" y="466.31" width="54.92" height="16.1" style="fill:#263238"></rect></g></svg>