<svg xmlns="http://www.w3.org/2000/svg" viewBox="0 0 500 500"><g id="freepik--background-complete--inject-31"><rect y="382.4" width="500" height="0.25" style="fill:#ebebeb"></rect><rect x="416.78" y="398.49" width="33.12" height="0.25" style="fill:#ebebeb"></rect><rect x="322.53" y="401.21" width="8.69" height="0.25" style="fill:#ebebeb"></rect><rect x="396.59" y="389.21" width="19.19" height="0.25" style="fill:#ebebeb"></rect><rect x="52.46" y="390.89" width="43.19" height="0.25" style="fill:#ebebeb"></rect><rect x="104.56" y="390.89" width="6.33" height="0.25" style="fill:#ebebeb"></rect><rect x="131.47" y="395.11" width="93.68" height="0.25" style="fill:#ebebeb"></rect><path d="M237,337.8H43.91a5.71,5.71,0,0,1-5.7-5.71V60.66A5.71,5.71,0,0,1,43.91,55H237a5.71,5.71,0,0,1,5.71,5.71V332.09A5.71,5.71,0,0,1,237,337.8ZM43.91,55.2a5.46,5.46,0,0,0-5.45,5.46V332.09a5.46,5.46,0,0,0,5.45,5.46H237a5.47,5.47,0,0,0,5.46-5.46V60.66A5.47,5.47,0,0,0,237,55.2Z" style="fill:#ebebeb"></path><path d="M453.31,337.8H260.21a5.72,5.72,0,0,1-5.71-5.71V60.66A5.72,5.72,0,0,1,260.21,55h193.1A5.71,5.71,0,0,1,459,60.66V332.09A5.71,5.71,0,0,1,453.31,337.8ZM260.21,55.2a5.47,5.47,0,0,0-5.46,5.46V332.09a5.47,5.47,0,0,0,5.46,5.46h193.1a5.47,5.47,0,0,0,5.46-5.46V60.66a5.47,5.47,0,0,0-5.46-5.46Z" style="fill:#ebebeb"></path><polygon points="438.89 382.08 438.89 337.77 416.13 337.77 416.13 292.04 412.92 292.04 412.92 318.25 404.17 318.25 404.17 311 388.41 311 388.41 285.9 385.49 285.9 385.49 255.23 383.16 255.23 383.16 285.34 377.61 285.34 377.61 329.96 367.11 329.96 367.11 285.34 348.14 285.34 348.14 323.08 328.23 323.08 328.23 277.34 325.02 277.34 325.02 303.56 316.27 303.56 316.27 296.31 300.51 296.31 300.51 271.21 297.59 271.21 297.59 240.53 295.26 240.53 295.26 270.65 289.71 270.65 289.71 315.27 279.21 315.27 279.21 270.65 260.24 270.65 260.24 313.81 247.45 313.81 247.45 288.71 244.53 288.71 244.53 258.04 242.2 258.04 242.2 288.15 236.66 288.15 236.66 332.77 226.15 332.77 226.15 288.15 207.18 288.15 207.18 332.77 197.85 332.77 197.85 337.77 181.49 337.77 181.49 292.04 178.28 292.04 178.28 318.25 169.53 318.25 169.53 311 153.77 311 153.77 285.9 150.85 285.9 150.85 255.23 148.52 255.23 148.52 285.34 143.43 285.34 143.43 282.83 124.46 282.83 124.46 285.34 113.96 285.34 113.96 282.83 108.41 282.83 108.41 252.72 106.08 252.72 106.08 283.39 103.16 283.39 103.16 308.49 87.4 308.49 87.4 315.74 78.65 315.74 78.65 289.52 75.44 289.52 75.44 335.26 52.68 335.26 52.68 382.08 438.89 382.08" style="fill:#e0e0e0"></polygon><circle cx="114.94" cy="111.95" r="27.79" style="fill:#fafafa"></circle><path d="M100.53,111.63A4.81,4.81,0,0,0,94.31,107a10.42,10.42,0,0,0,.11-1.48A10.23,10.23,0,0,0,84.19,95.3a10.71,10.71,0,0,0-1.89.17A8.94,8.94,0,0,0,65.73,100h-.15a8.24,8.24,0,0,0,0,16.48H95.83A4.83,4.83,0,0,0,100.53,111.63Z" style="fill:#f0f0f0"></path><path d="M426.6,218.31c3.68-.1,6.33-4.3,3.52-8.2a5.34,5.34,0,0,0-5-1.25,11,11,0,0,0-2.64-8.65c-3.27-2.82-6.52-3.41-9.37-2.88a8.93,8.93,0,0,0-16.57,4.52h-.15c-7.19,0-12.23,9.21-4,16.48H426.6Z" style="fill:#f0f0f0"></path><path d="M346.78,237.88c3.67-.1,6.32-4.3,3.52-8.2a5.3,5.3,0,0,0-5.05-1.25,11,11,0,0,0-2.63-8.66c-3.27-2.82-6.52-3.41-9.37-2.88a8.94,8.94,0,0,0-16.58,4.52h-.15c-7.19,0-12.23,9.21-4,16.48h34.22Z" style="fill:#f0f0f0"></path><path d="M145.21,182.15a7.65,7.65,0,0,1,7.64-7.65,7.54,7.54,0,0,1,2.19.33,16.56,16.56,0,0,1-.17-2.35,16.18,16.18,0,0,1,16.19-16.18,16.35,16.35,0,0,1,3,.27,14.15,14.15,0,0,1,26.23,7.16l.23,0a13,13,0,0,1,0,26.08H152.63A7.64,7.64,0,0,1,145.21,182.15Z" style="fill:#f0f0f0"></path><path d="M266.72,154.45a9.19,9.19,0,0,1,11.84-8.81,18.72,18.72,0,0,1-.21-2.82,19.48,19.48,0,0,1,19.48-19.48,20.31,20.31,0,0,1,3.59.33A17,17,0,0,1,333,132.28h.28a15.69,15.69,0,1,1,0,31.37h-57.6A9.19,9.19,0,0,1,266.72,154.45Z" style="fill:#f0f0f0"></path><path d="M161.14,126.11a3,3,0,0,0-3.87-2.88,7,7,0,0,0,.07-.92A6.36,6.36,0,0,0,151,116a6.45,6.45,0,0,0-1.17.11,5.56,5.56,0,0,0-10.31,2.81h-.09a5.13,5.13,0,1,0,0,10.25h18.81A3,3,0,0,0,161.14,126.11Z" style="fill:#f0f0f0"></path><path d="M362.45,93.7a3,3,0,0,1,3.86-2.87,7,7,0,0,1-.07-.92,6.36,6.36,0,0,1,6.36-6.36,6.56,6.56,0,0,1,1.18.11,5.55,5.55,0,0,1,10.3,2.81h.09a5.13,5.13,0,1,1,0,10.25h-18.8A3,3,0,0,1,362.45,93.7Z" style="fill:#f0f0f0"></path></g><g id="freepik--Shadow--inject-31"><ellipse id="freepik--path--inject-31" cx="250" cy="416.24" rx="193.89" ry="11.32" style="fill:#f5f5f5"></ellipse></g><g id="freepik--canadian-national-tower--inject-31"><path d="M401.48,378V176.74l-4.77-2.44S392.78,335.05,385,378Z" style="fill:#FFE400"></path><path d="M418.28,378c-7.82-42.95-11.75-203.7-11.75-203.7l-4.77,2.44V378Z" style="fill:#FFE400"></path><g style="opacity:0.2"><path d="M401.48,378V176.74l-4.77-2.44S392.78,335.05,385,378Z" style="fill:#fff"></path><path d="M418.28,378c-7.82-42.95-11.75-203.7-11.75-203.7l-4.77,2.44V378Z" style="fill:#fff"></path></g><g style="opacity:0.2"><path d="M400.54,378V176.74l-2.6-2.44s-2.13,160.75-6.39,203.7Z"></path><path d="M409.69,378c-4.26-42.95-6.4-203.7-6.4-203.7l-2.59,2.44V378Z"></path></g><rect x="398.92" y="172.73" width="5.41" height="205.27" style="fill:#FFE400"></rect><rect x="398.92" y="172.73" width="5.41" height="205.27" style="fill:#fff;opacity:0.30000000000000004"></rect><rect x="401.11" y="76.56" width="1.01" height="25.12" style="fill:#FFE400"></rect><rect x="401.11" y="76.56" width="1.01" height="25.12" style="fill:#fff;opacity:0.2"></rect><rect x="400.6" y="96.56" width="2.03" height="19.38" style="fill:#FFE400"></rect><rect x="400.6" y="96.56" width="2.03" height="19.38" style="fill:#fff;opacity:0.2"></rect><rect x="399.86" y="106.56" width="3.51" height="19.38" style="fill:#FFE400"></rect><rect x="399.86" y="106.56" width="3.51" height="19.38" style="fill:#fff;opacity:0.2"></rect><rect x="399.12" y="129.27" width="5" height="28.63" style="fill:#FFE400"></rect><rect x="399.12" y="129.27" width="5" height="28.63" style="fill:#fff;opacity:0.2"></rect><rect x="400.6" y="141.21" width="2.03" height="6.59" style="opacity:0.2"></rect><rect x="398.06" y="150.52" width="2.57" height="7.91" style="fill:#FFE400"></rect><rect x="398.06" y="150.52" width="2.57" height="7.91" style="fill:#fff;opacity:0.30000000000000004"></rect><rect x="397.6" y="149.93" width="3.03" height="3.03" rx="0.43" style="fill:#FFE400"></rect><rect x="397.6" y="149.93" width="3.03" height="3.03" rx="0.43" style="fill:#fff;opacity:0.4"></rect><rect x="402.6" y="150.52" width="2.57" height="7.91" transform="translate(807.78 308.96) rotate(180)" style="fill:#FFE400"></rect><rect x="402.6" y="150.52" width="2.57" height="7.91" transform="translate(807.78 308.96) rotate(180)" style="fill:#fff;opacity:0.30000000000000004"></rect><rect x="402.6" y="149.93" width="3.03" height="3.03" rx="0.43" transform="translate(808.24 302.89) rotate(180)" style="fill:#FFE400"></rect><rect x="402.6" y="149.93" width="3.03" height="3.03" rx="0.43" transform="translate(808.24 302.89) rotate(180)" style="fill:#fff;opacity:0.4"></rect><polygon points="416.37 161.43 416.18 162.78 415.69 166.31 415.44 168.02 415.27 169.26 414.99 171.19 388.25 171.19 387.97 169.26 387.8 168.02 387.56 166.31 387.06 162.78 386.87 161.43 416.37 161.43" style="fill:#FFE400"></polygon><path d="M411.24,162H392l.64-5.37a.76.76,0,0,1,.76-.67h16.44a.77.77,0,0,1,.76.67Z" style="fill:#FFE400"></path><path d="M411.24,162H392l.64-5.37a.76.76,0,0,1,.76-.67h16.44a.77.77,0,0,1,.76.67Z" style="fill:#fff;opacity:0.4"></path><polygon points="396.06 161.99 407.18 161.99 406.9 157.9 396.34 157.9 396.06 161.99" style="opacity:0.2"></polygon><g style="opacity:0.2"><polygon points="394.56 161.99 392 161.99 392.49 157.9 394.92 157.9 394.56 161.99"></polygon><polygon points="411.24 161.99 408.68 161.99 408.32 157.9 410.75 157.9 411.24 161.99"></polygon></g><path d="M417.16,161.43H386.08l.55-1.34a1.78,1.78,0,0,1,1.66-1.12H415a1.78,1.78,0,0,1,1.66,1.12Z" style="fill:#FFE400"></path><path d="M417.16,161.43H386.08l.55-1.34a1.78,1.78,0,0,1,1.66-1.12H415a1.78,1.78,0,0,1,1.66,1.12Z" style="opacity:0.2"></path><polygon points="412.82 174.26 390.42 174.26 387.61 171.19 415.63 171.19 412.82 174.26" style="fill:#FFE400"></polygon><polygon points="412.82 174.26 390.42 174.26 387.61 171.19 415.63 171.19 412.82 174.26" style="opacity:0.2"></polygon><polygon points="399.35 174.26 398.79 174.26 398.08 171.19 398.77 171.19 399.35 174.26" style="fill:#fff;opacity:0.4"></polygon><polygon points="404.45 174.26 403.89 174.26 404.46 171.19 405.16 171.19 404.45 174.26" style="fill:#fff;opacity:0.4"></polygon><polygon points="395.44 174.26 394.89 174.26 393.2 171.19 393.89 171.19 395.44 174.26" style="fill:#fff;opacity:0.4"></polygon><polygon points="408.35 174.26 407.8 174.26 409.35 171.19 410.04 171.19 408.35 174.26" style="fill:#fff;opacity:0.4"></polygon><polygon points="391.94 174.26 391.39 174.26 388.82 171.19 389.51 171.19 391.94 174.26" style="fill:#fff;opacity:0.4"></polygon><polygon points="411.85 174.26 411.3 174.26 413.73 171.19 414.42 171.19 411.85 174.26" style="fill:#fff;opacity:0.4"></polygon><polygon points="387.28 169.26 415.95 169.26 415.66 171.19 387.57 171.19 387.28 169.26" style="fill:#FFE400"></polygon><polygon points="416.39 166.31 416.13 168.02 387.1 168.02 386.85 166.31 416.39 166.31" style="fill:#FFE400"></polygon><polygon points="417.11 161.43 416.91 162.78 386.32 162.78 386.12 161.43 417.11 161.43" style="fill:#FFE400"></polygon><polygon points="387.28 169.26 415.95 169.26 415.66 171.19 387.57 171.19 387.28 169.26" style="fill:#fff;opacity:0.4"></polygon><polygon points="416.39 166.31 416.13 168.02 387.1 168.02 386.85 166.31 416.39 166.31" style="fill:#fff;opacity:0.4"></polygon><polygon points="417.11 161.43 416.91 162.78 386.32 162.78 386.12 161.43 417.11 161.43" style="fill:#fff;opacity:0.4"></polygon><path d="M409.43,179.6H393.8a4.53,4.53,0,0,1-4.3-3.09l-.58-1.72a.84.84,0,0,1,.79-1.11h23.81a.84.84,0,0,1,.8,1.11l-.58,1.72A4.54,4.54,0,0,1,409.43,179.6Z" style="fill:#FFE400"></path><path d="M409.43,179.6H393.8a4.53,4.53,0,0,1-4.3-3.09l-.58-1.72a.84.84,0,0,1,.79-1.11h23.81a.84.84,0,0,1,.8,1.11l-.58,1.72A4.54,4.54,0,0,1,409.43,179.6Z" style="fill:#fff;opacity:0.4"></path><polygon points="405.4 128.19 397.84 128.19 398.84 130.29 404.4 130.29 405.4 128.19" style="fill:#FFE400"></polygon><rect x="397.84" y="126.6" width="7.55" height="1.59" style="fill:#FFE400"></rect><rect x="397.84" y="126.6" width="7.55" height="1.59" style="fill:#fff;opacity:0.4"></rect><polygon points="403.4 123.39 399.84 123.39 397.84 126.6 405.4 126.6 403.4 123.39" style="fill:#FFE400"></polygon><polygon points="403.4 123.39 399.84 123.39 397.84 126.6 405.4 126.6 403.4 123.39" style="fill:#fff;opacity:0.5"></polygon></g><g id="freepik--Buildings--inject-31"><rect x="114.36" y="321.56" width="19.66" height="57.44" style="fill:#FFE400"></rect><rect x="173.64" y="332.37" width="19.66" height="46.62" style="fill:#FFE400"></rect><g style="opacity:0.7000000000000001"><rect x="114.36" y="321.56" width="19.66" height="57.44" style="fill:#fff"></rect></g><rect x="144.37" y="339.75" width="19.66" height="39.25" style="fill:#FFE400"></rect><g style="opacity:0.7000000000000001"><rect x="173.64" y="332.37" width="19.66" height="46.62" style="fill:#fff"></rect></g><g style="opacity:0.7000000000000001"><rect x="144.37" y="339.75" width="19.66" height="39.25" style="fill:#fff"></rect></g><g style="opacity:0.2"><rect x="114.36" y="325.49" width="19.66" height="0.49"></rect><rect x="114.36" y="329.42" width="19.66" height="0.49"></rect><rect x="114.36" y="333.36" width="19.66" height="0.49"></rect><rect x="114.36" y="337.29" width="19.66" height="0.49"></rect><rect x="114.36" y="341.22" width="19.66" height="0.49"></rect><rect x="114.36" y="345.15" width="19.66" height="0.49"></rect><rect x="114.36" y="349.09" width="19.66" height="0.49"></rect><rect x="114.36" y="353.02" width="19.66" height="0.49"></rect><rect x="114.36" y="356.95" width="19.66" height="0.49"></rect><rect x="114.36" y="360.88" width="19.66" height="0.49"></rect><rect x="114.36" y="364.82" width="19.66" height="0.49"></rect><rect x="114.36" y="368.75" width="19.66" height="0.49"></rect><rect x="114.36" y="372.68" width="19.66" height="0.49"></rect><rect x="114.36" y="376.61" width="19.66" height="0.49"></rect><rect x="144.37" y="355.48" width="19.66" height="0.49"></rect><rect x="144.37" y="343.68" width="19.66" height="0.49"></rect><rect x="144.37" y="347.61" width="19.66" height="0.49"></rect><rect x="144.37" y="351.55" width="19.66" height="0.49"></rect><rect x="144.37" y="359.41" width="19.66" height="0.49"></rect><rect x="144.37" y="363.34" width="19.66" height="0.49"></rect><rect x="144.37" y="367.28" width="19.66" height="0.49"></rect><rect x="144.37" y="371.21" width="19.66" height="0.49"></rect><rect x="144.37" y="375.14" width="19.66" height="0.49"></rect><rect x="173.64" y="336.31" width="19.66" height="0.49"></rect><rect x="173.64" y="340.24" width="19.66" height="0.49"></rect><rect x="173.64" y="344.17" width="19.66" height="0.49"></rect><rect x="173.64" y="348.1" width="19.66" height="0.49"></rect><rect x="173.64" y="352.04" width="19.66" height="0.49"></rect><rect x="173.64" y="355.97" width="19.66" height="0.49"></rect><rect x="173.64" y="359.9" width="19.66" height="0.49"></rect><rect x="173.64" y="363.83" width="19.66" height="0.49"></rect><rect x="173.64" y="367.77" width="19.66" height="0.49"></rect><rect x="173.64" y="371.7" width="19.66" height="0.49"></rect><rect x="173.64" y="375.63" width="19.66" height="0.49"></rect></g><rect x="80.64" y="332.37" width="19.66" height="46.62" style="fill:#FFE400"></rect><rect x="48.37" y="339.75" width="19.66" height="39.25" style="fill:#FFE400"></rect><g style="opacity:0.7000000000000001"><rect x="80.64" y="332.37" width="19.66" height="46.62" style="fill:#fff"></rect></g><g style="opacity:0.7000000000000001"><rect x="48.37" y="339.75" width="19.66" height="39.25" style="fill:#fff"></rect></g><g style="opacity:0.2"><rect x="48.37" y="355.48" width="19.66" height="0.49"></rect><rect x="48.37" y="343.68" width="19.66" height="0.49"></rect><rect x="48.37" y="347.61" width="19.66" height="0.49"></rect><rect x="48.37" y="351.55" width="19.66" height="0.49"></rect><rect x="48.37" y="359.41" width="19.66" height="0.49"></rect><rect x="48.37" y="363.34" width="19.66" height="0.49"></rect><rect x="48.37" y="367.28" width="19.66" height="0.49"></rect><rect x="48.37" y="371.21" width="19.66" height="0.49"></rect><rect x="48.37" y="375.14" width="19.66" height="0.49"></rect></g><g style="opacity:0.2"><rect x="80.64" y="336.31" width="19.66" height="0.49"></rect><rect x="80.64" y="340.24" width="19.66" height="0.49"></rect><rect x="80.64" y="344.17" width="19.66" height="0.49"></rect><rect x="80.64" y="348.1" width="19.66" height="0.49"></rect><rect x="80.64" y="352.04" width="19.66" height="0.49"></rect><rect x="80.64" y="355.97" width="19.66" height="0.49"></rect><rect x="80.64" y="359.9" width="19.66" height="0.49"></rect><rect x="80.64" y="363.83" width="19.66" height="0.49"></rect><rect x="80.64" y="367.77" width="19.66" height="0.49"></rect><rect x="80.64" y="371.7" width="19.66" height="0.49"></rect><rect x="80.64" y="375.63" width="19.66" height="0.49"></rect></g><rect x="329.36" y="320.56" width="19.66" height="57.44" style="fill:#FFE400"></rect><g style="opacity:0.7000000000000001"><rect x="329.36" y="320.56" width="19.66" height="57.44" style="fill:#fff"></rect></g><rect x="362.37" y="338.75" width="19.66" height="39.25" style="fill:#FFE400"></rect><g style="opacity:0.7000000000000001"><rect x="362.37" y="338.75" width="19.66" height="39.25" style="fill:#fff"></rect></g><g style="opacity:0.2"><rect x="329.36" y="324.49" width="19.66" height="0.49"></rect><rect x="329.36" y="328.42" width="19.66" height="0.49"></rect><rect x="329.36" y="332.36" width="19.66" height="0.49"></rect><rect x="329.36" y="336.29" width="19.66" height="0.49"></rect><rect x="329.36" y="340.22" width="19.66" height="0.49"></rect><rect x="329.36" y="344.15" width="19.66" height="0.49"></rect><rect x="329.36" y="348.09" width="19.66" height="0.49"></rect><rect x="329.36" y="352.02" width="19.66" height="0.49"></rect><rect x="329.36" y="355.95" width="19.66" height="0.49"></rect><rect x="329.36" y="359.88" width="19.66" height="0.49"></rect><rect x="329.36" y="363.82" width="19.66" height="0.49"></rect><rect x="329.36" y="367.75" width="19.66" height="0.49"></rect><rect x="329.36" y="371.68" width="19.66" height="0.49"></rect><rect x="329.36" y="375.61" width="19.66" height="0.49"></rect><rect x="362.37" y="354.48" width="19.66" height="0.49"></rect><rect x="362.37" y="342.68" width="19.66" height="0.49"></rect><rect x="362.37" y="346.61" width="19.66" height="0.49"></rect><rect x="362.37" y="350.55" width="19.66" height="0.49"></rect><rect x="362.37" y="358.41" width="19.66" height="0.49"></rect><rect x="362.37" y="362.34" width="19.66" height="0.49"></rect><rect x="362.37" y="366.28" width="19.66" height="0.49"></rect><rect x="362.37" y="370.21" width="19.66" height="0.49"></rect><rect x="362.37" y="374.14" width="19.66" height="0.49"></rect></g><rect x="427.64" y="332.37" width="19.66" height="46.62" style="fill:#FFE400"></rect><g style="opacity:0.7000000000000001"><rect x="427.64" y="332.37" width="19.66" height="46.62" style="fill:#fff"></rect></g><g style="opacity:0.2"><rect x="427.64" y="336.31" width="19.66" height="0.49"></rect><rect x="427.64" y="340.24" width="19.66" height="0.49"></rect><rect x="427.64" y="344.17" width="19.66" height="0.49"></rect><rect x="427.64" y="348.1" width="19.66" height="0.49"></rect><rect x="427.64" y="352.04" width="19.66" height="0.49"></rect><rect x="427.64" y="355.97" width="19.66" height="0.49"></rect><rect x="427.64" y="359.9" width="19.66" height="0.49"></rect><rect x="427.64" y="363.83" width="19.66" height="0.49"></rect><rect x="427.64" y="367.77" width="19.66" height="0.49"></rect><rect x="427.64" y="371.7" width="19.66" height="0.49"></rect><rect x="427.64" y="375.63" width="19.66" height="0.49"></rect></g><path d="M447.2,375.86H48.91a6.64,6.64,0,0,0-4.64,1.88l-5.06,4.91H456.9l-5.06-4.91A6.64,6.64,0,0,0,447.2,375.86Z" style="fill:#FFE400"></path><path d="M447.2,375.86H48.91a6.64,6.64,0,0,0-4.64,1.88l-5.06,4.91H456.9l-5.06-4.91A6.64,6.64,0,0,0,447.2,375.86Z" style="fill:#fff;opacity:0.15"></path></g><g id="freepik--rogers-centre--inject-31"><path d="M351.94,356c0-12.72-37.62-41.19-84-41.19s-84,28.47-84,41.19,37.62,22,84,22S351.94,368.69,351.94,356Z" style="fill:#FFE400"></path><path d="M351.94,356c0-12.72-37.62-41.19-84-41.19s-84,28.47-84,41.19,37.62,22,84,22S351.94,368.69,351.94,356Z" style="fill:#fff;opacity:0.30000000000000004"></path><rect x="335.16" y="349.28" width="17.52" height="28.72" style="fill:#FFE400"></rect><rect x="183.16" y="349.28" width="17.52" height="28.72" style="fill:#FFE400"></rect><path d="M337.94,356.28c0-9.81-31.35-31.76-70-31.76s-70,22-70,31.76,31.35,17.76,70,17.76S337.94,366.09,337.94,356.28Z" style="fill:#FFE400"></path><path d="M337.94,356.28c0-9.81-31.35-31.76-70-31.76s-70,22-70,31.76,31.35,17.76,70,17.76S337.94,366.09,337.94,356.28Z" style="fill:#fff;opacity:0.5"></path><rect x="197.89" y="355.87" width="140.04" height="22.13" style="fill:#FFE400"></rect><rect x="197.89" y="355.87" width="140.04" height="22.13" style="fill:#fff;opacity:0.30000000000000004"></rect><rect x="234.88" y="355.87" width="66.07" height="22.13" style="fill:#fff;opacity:0.2"></rect><rect x="253.76" y="363.98" width="8.31" height="14.02" style="opacity:0.2"></rect><rect x="263.76" y="363.98" width="8.31" height="14.02" style="opacity:0.2"></rect><rect x="273.76" y="363.98" width="8.31" height="14.02" style="opacity:0.2"></rect><rect x="307.76" y="363.98" width="8.31" height="14.02" style="opacity:0.2"></rect><rect x="317.76" y="363.98" width="8.31" height="14.02" style="opacity:0.2"></rect><rect x="327.76" y="363.98" width="8.31" height="14.02" style="opacity:0.2"></rect><rect x="199.76" y="363.98" width="8.31" height="14.02" style="opacity:0.2"></rect><rect x="209.76" y="363.98" width="8.31" height="14.02" style="opacity:0.2"></rect><rect x="219.76" y="363.98" width="8.31" height="14.02" style="opacity:0.2"></rect></g><g id="freepik--Street--inject-31"><path d="M379,401.87s2.44-8.18-2.49-9.81-7.87-5.45-7.7-9.77-5-8.53-8.93-4.48-3.38-3.11-8.57-4.85-9.6,2.48-8.18,6.34-3.7,6.28-9.84,3-12.89,2.69-11.59,7.37.23,5.19-3.65,3.63-10.84,2.86-8.4,8.58S379,401.87,379,401.87Z" style="fill:#FFE400"></path><path d="M379,401.87s2.44-8.18-2.49-9.81-7.87-5.45-7.7-9.77-5-8.53-8.93-4.48-3.38-3.11-8.57-4.85-9.6,2.48-8.18,6.34-3.7,6.28-9.84,3-12.89,2.69-11.59,7.37.23,5.19-3.65,3.63-10.84,2.86-8.4,8.58S379,401.87,379,401.87Z" style="fill:#fff;opacity:0.30000000000000004;isolation:isolate"></path><path d="M180.45,401.44c4.39-4.39.44-11.84-3.94-12.71s-8.79-8.59-9-13.5-8.1-20-20.37-10.68-8.54,1.37-17.42-1.25-14.47,4.92-10.58,10.57c0,0-8.92-2.23-12.59,6.09s0,13.5,0,13.5S89.79,393,91.3,403.34,180.45,401.44,180.45,401.44Z" style="fill:#FFE400"></path><path d="M180.45,401.44c4.39-4.39.44-11.84-3.94-12.71s-8.79-8.59-9-13.5-8.1-20-20.37-10.68-8.54,1.37-17.42-1.25-14.47,4.92-10.58,10.57c0,0-8.92-2.23-12.59,6.09s0,13.5,0,13.5S89.79,393,91.3,403.34,180.45,401.44,180.45,401.44Z" style="fill:#fff;opacity:0.30000000000000004;isolation:isolate"></path><path d="M415.78,400.82v12H77.47v-12A3.58,3.58,0,0,1,81,397.05H412.24A3.58,3.58,0,0,1,415.78,400.82Z" style="fill:#263238"></path><rect x="96.75" y="397.05" width="21.03" height="15.78" style="fill:#FFE400"></rect><rect x="137.07" y="397.05" width="20.16" height="15.78" style="fill:#FFE400"></rect><rect x="176.51" y="397.05" width="21.03" height="15.78" style="fill:#FFE400"></rect><rect x="216.83" y="397.05" width="20.16" height="15.78" style="fill:#FFE400"></rect><rect x="256.27" y="397.05" width="20.16" height="15.78" style="fill:#FFE400"></rect><rect x="295.71" y="397.05" width="21.03" height="15.78" style="fill:#FFE400"></rect><rect x="336.03" y="397.05" width="20.16" height="15.78" style="fill:#FFE400"></rect><rect x="375.47" y="397.05" width="21.03" height="15.78" style="fill:#FFE400"></rect><g style="opacity:0.6000000000000001;isolation:isolate"><rect x="96.75" y="397.05" width="21.03" height="15.78" style="fill:#fff"></rect><rect x="137.07" y="397.05" width="20.16" height="15.78" style="fill:#fff"></rect><rect x="176.51" y="397.05" width="21.03" height="15.78" style="fill:#fff"></rect><rect x="216.83" y="397.05" width="20.16" height="15.78" style="fill:#fff"></rect><rect x="256.27" y="397.05" width="20.16" height="15.78" style="fill:#fff"></rect><rect x="295.71" y="397.05" width="21.03" height="15.78" style="fill:#fff"></rect><rect x="336.03" y="397.05" width="20.16" height="15.78" style="fill:#fff"></rect><rect x="375.47" y="397.05" width="21.03" height="15.78" style="fill:#fff"></rect></g><path d="M415.78,400.82v12H77.47v-12A3.58,3.58,0,0,1,81,397.05H412.24A3.58,3.58,0,0,1,415.78,400.82Z" style="fill:#fff;opacity:0.1;isolation:isolate"></path></g></svg>